<?xml version="1.0" encoding="UTF-8" standalone="no"?>
<!-- Created with Inkscape (http://www.inkscape.org/) -->

<svg
   xmlns:dc="http://purl.org/dc/elements/1.1/"
   xmlns:cc="http://creativecommons.org/ns#"
   xmlns:rdf="http://www.w3.org/1999/02/22-rdf-syntax-ns#"
   xmlns:svg="http://www.w3.org/2000/svg"
   xmlns="http://www.w3.org/2000/svg"
   xmlns:sodipodi="http://sodipodi.sourceforge.net/DTD/sodipodi-0.dtd"
   xmlns:inkscape="http://www.inkscape.org/namespaces/inkscape"
   width="212.59842"
   height="70.866142"
   id="svg871"
   version="1.1"
   inkscape:version="0.48+devel r10556"
   sodipodi:docname="New document 5">
  <defs
     id="defs873" />
  <sodipodi:namedview
     id="base"
     pagecolor="#ffffff"
     bordercolor="#666666"
     borderopacity="1.0"
     inkscape:pageopacity="0.0"
     inkscape:pageshadow="2"
     inkscape:zoom="3.2103583"
     inkscape:cx="84.438214"
     inkscape:cy="13.591677"
     inkscape:document-units="px"
     inkscape:current-layer="layer1"
     showgrid="false"
     showguides="true"
     inkscape:guide-bbox="true"
     units="cm"
     inkscape:window-width="1280"
     inkscape:window-height="753"
     inkscape:window-x="0"
     inkscape:window-y="0"
     inkscape:window-maximized="1" />
  <metadata
     id="metadata876">
    <rdf:RDF>
      <cc:Work
         rdf:about="">
        <dc:format>image/svg+xml</dc:format>
        <dc:type
           rdf:resource="http://purl.org/dc/dcmitype/StillImage" />
        <dc:title></dc:title>
      </cc:Work>
    </rdf:RDF>
  </metadata>
  <g
     inkscape:label="Layer 1"
     inkscape:groupmode="layer"
     id="layer1"
     transform="translate(0,-981.49475)">
    <path
       id="path962"
       style="fill:none;stroke:#000000;stroke-width:0.13755997;stroke-linecap:butt;stroke-linejoin:miter;stroke-miterlimit:4;stroke-opacity:1;stroke-dasharray:none"
       d="m 62.551779,1008.4437 8.541659,0 0.239491,9.2335 -8.78115,0 0,-9.2335 z m -33.68769,0 8.541661,0 0,9.2335 -8.781151,0 0.23949,-9.2335 z m -8.781151,-25.62486 0,8.75455 7.849815,0 0,8.78111 -8.541669,0 0,9.2333 -8.78115,0 0,8.0894 -8.781151,0 0,24.268 10.856694,0 0,-16.6311 6.918489,0 0,24.9333 26.103963,0 0,-8.5417 -15.939122,0 0,-8.0893 15.939122,0 8.54167,0 15.93912,0 0,8.0893 -15.93912,0 0,8.5417 26.103961,0 0,-24.9333 6.91849,0 0,16.6311 10.856696,0 0,-24.268 -8.781158,0 0,-8.0894 -8.781144,0 0,-9.2333 -8.54167,0 0,-8.78111 7.849816,0 0,-8.75455 -18.014666,0 0,17.53566 -7.610325,0 -8.54167,0 -7.610325,0 0,-17.53566 -18.014666,0 z m 29.917985,20.57286 c 1.911558,0 3.455906,1.5447 3.455906,3.4561 0,1.9115 -1.544348,3.4559 -3.455906,3.4559 -1.911555,0 -3.500223,-1.5444 -3.500223,-3.4559 0,-1.9114 1.588668,-3.4561 3.500223,-3.4561 z" />
    <path
       d="m 163.1636,1008.4437 8.54166,0 0.23949,9.2335 -8.78115,0 0,-9.2335 z m -33.68769,0 8.54166,0 0,9.2335 -8.78115,0 0.23949,-9.2335 z m -8.78115,-25.62486 0,8.75455 7.84982,0 0,8.78111 -8.54167,0 0,9.2333 -8.78115,0 0,8.0894 -8.78115,0 0,24.268 10.85669,0 0,-16.6311 6.91849,0 0,24.9333 26.10396,0 0,-8.5417 -15.93912,0 0,-8.0893 15.93912,0 8.54167,0 15.93912,0 0,8.0893 -15.93912,0 0,8.5417 26.10396,0 0,-24.9333 6.91849,0 0,16.6311 10.8567,0 0,-24.268 -8.78116,0 0,-8.0894 -8.78114,0 0,-9.2333 -8.54167,0 0,-8.78111 7.84981,0 0,-8.75455 -18.01466,0 0,17.53566 -7.61033,0 -8.54167,0 -7.61032,0 0,-17.53566 -18.01467,0 z m 29.91799,20.57286 c 1.91155,0 3.4559,1.5447 3.4559,3.4561 0,1.9115 -1.54435,3.4559 -3.4559,3.4559 -1.91156,0 -3.50023,-1.5444 -3.50023,-3.4559 0,-1.9114 1.58867,-3.4561 3.50023,-3.4561 z"
       style="fill:none;stroke:#000000;stroke-width:0.13755997;stroke-linecap:butt;stroke-linejoin:miter;stroke-miterlimit:4;stroke-opacity:1;stroke-dasharray:none"
       id="path1508"
       inkscape:connector-curvature="0" />
  </g>
</svg>
