<?xml version="1.0" encoding="UTF-8" standalone="no"?>
<!-- Created with Inkscape (http://www.inkscape.org/) -->

<svg
   xmlns:dc="http://purl.org/dc/elements/1.1/"
   xmlns:cc="http://creativecommons.org/ns#"
   xmlns:rdf="http://www.w3.org/1999/02/22-rdf-syntax-ns#"
   xmlns:svg="http://www.w3.org/2000/svg"
   xmlns="http://www.w3.org/2000/svg"
   xmlns:sodipodi="http://sodipodi.sourceforge.net/DTD/sodipodi-0.dtd"
   xmlns:inkscape="http://www.inkscape.org/namespaces/inkscape"
   width="212.59842"
   height="70.866142"
   id="svg871"
   version="1.1"
   inkscape:version="0.48.1 "
   sodipodi:docname="invaders-earring.svg">
  <defs
     id="defs873">
    <clipPath
       clipPathUnits="userSpaceOnUse"
       id="clipPath3069">
      <rect
         style="fill:none;stroke:#000000;stroke-width:0.1;stroke-miterlimit:4;stroke-opacity:1;stroke-dasharray:none"
         id="rect3071"
         width="80"
         height="70"
         x="10"
         y="942.3609" />
    </clipPath>
  </defs>
  <sodipodi:namedview
     id="base"
     pagecolor="#ffffff"
     bordercolor="#666666"
     borderopacity="1.0"
     inkscape:pageopacity="0.0"
     inkscape:pageshadow="2"
     inkscape:zoom="3.2103583"
     inkscape:cx="97.455933"
     inkscape:cy="75.771278"
     inkscape:document-units="px"
     inkscape:current-layer="layer1"
     showgrid="true"
     showguides="true"
     inkscape:guide-bbox="true"
     units="cm"
     inkscape:window-width="1280"
     inkscape:window-height="968"
     inkscape:window-x="-4"
     inkscape:window-y="-4"
     inkscape:window-maximized="1"
     inkscape:snap-global="true">
    <inkscape:grid
       type="xygrid"
       id="grid3036" />
  </sodipodi:namedview>
  <metadata
     id="metadata876">
    <rdf:RDF>
      <cc:Work
         rdf:about="">
        <dc:format>image/svg+xml</dc:format>
        <dc:type
           rdf:resource="http://purl.org/dc/dcmitype/StillImage" />
        <dc:title></dc:title>
      </cc:Work>
    </rdf:RDF>
  </metadata>
  <g
     inkscape:label="Layer 1"
     inkscape:groupmode="layer"
     id="layer1"
     transform="translate(0,-981.49475)">
    <path
       id="path962-1"
       style="fill:#ff0000;fill-opacity:0.40641713;stroke:#000000;stroke-width:0.10198642;stroke-linecap:butt;stroke-linejoin:miter;stroke-miterlimit:4;stroke-opacity:1;stroke-dasharray:none"
       d="m 53.869063,1002.956 c 1.41722,0 2.562198,1.1453 2.562198,2.5624 0,1.4171 -1.144978,2.5622 -2.562198,2.5622 -1.41722,0 -2.595052,-1.1451 -2.595052,-2.5622 0,-1.4171 1.177832,-2.5624 2.595052,-2.5624 z m -29.622736,-19.43089 0,8.45895 8.458945,0 0,8.45894 -8.458945,0 0,8.4589 -8.458946,0 0,8.459 -8.4589455,0 0,25.3768 8.4589455,0 0,-16.9179 8.458946,0 0,25.3769 25.376836,0 0,-8.459 -16.917891,0 0,-8.4589 16.917891,0 8.458946,0 16.917891,0 0,8.4589 -16.917891,0 0,8.459 25.376836,0 0,-25.3769 8.458945,0 0,16.9179 8.45895,0 0,-25.3768 -8.45895,0 0,-8.459 -8.458945,0 0,-8.4589 -8.458945,0 0,-8.45894 8.458945,0 0,-8.45895 -16.917891,0 0,16.91789 c -8.19221,0 -17.184627,0 -25.376837,0 l 0,-16.91789 z m 8.458945,25.37679 8.458945,0 0,8.459 -8.458945,0 z m 33.835782,0 8.458946,0 0,8.459 -8.458946,0 z" />
    <path
       inkscape:connector-curvature="0"
       id="path3873"
       style="fill:none;stroke:#000000;stroke-width:0.84589458px;stroke-linecap:butt;stroke-linejoin:miter;stroke-opacity:1"
       d="m 66.541054,1051.1966 0,-8.4589 m 16.917891,0 -8.458945,0 0,8.4589 m 8.458945,-25.3768 -8.458945,0 0,8.4589 8.458945,0 m -33.835782,0 0,-8.4589 8.458946,0 0,8.4589 m -16.917892,0 c 0,-8.4589 0,-8.4589 0,-8.4589 l 8.458946,0 0,-8.459 8.458946,0 0,8.459 8.458945,0 0,8.4589 m -42.294727,0 c 8.458945,0 8.458945,0 8.458945,0 l 0,-8.4589 -8.458945,0 m 8.458945,25.3768 c 0,-8.4589 0,-8.4589 0,-8.4589 l -8.458945,0 m 16.91789,8.4589 c 0,-8.4589 0,-8.4589 0,-8.4589 m 42.294728,-16.9179 c 0,-8.459 0,-8.459 0,-8.459 l -8.458945,0 0,8.459 -8.458946,0 0,-8.459 -8.458945,0 0,-8.4589 8.458945,0 0,-8.4589 m 33.835786,33.8357 c -8.45895,0 -8.45895,0 -8.45895,0 M 66.541054,1000.443 c 8.458946,0 8.458946,0 8.458946,0 l 0,8.4589 8.458945,0 0,8.4589 8.458945,0 0,8.459 8.45895,0 M 75,983.52506 c 0,8.45895 0,8.45895 0,8.45895 l -8.458946,0 m -16.917891,8.45899 c 0,8.4589 0,8.4589 0,8.4589 l 8.458946,0 0,-8.4589 m -33.835782,25.3768 c 0,-8.459 0,-8.459 0,-8.459 l 8.458945,0 0,8.459 8.458945,0 0,-8.459 8.458946,0 0,-8.4589 -8.458946,0 0,-8.4589 m -33.8357815,33.8357 c 8.4589455,0 8.4589455,0 8.4589455,0 m 25.376836,-33.8357 c -8.458945,0 -8.458945,0 -8.458945,0 l 0,8.4589 -8.458945,0 0,8.4589 -8.458946,0 0,8.459 -8.4589455,0 M 32.705272,983.52506 c 0,8.45895 0,8.45895 0,8.45895 l 8.458945,0" />
    <path
       id="path3894"
       style="fill:#ff0000;fill-opacity:0.40641713;stroke:#000000;stroke-width:0.10198642;stroke-linecap:butt;stroke-linejoin:miter;stroke-miterlimit:4;stroke-opacity:1;stroke-dasharray:none"
       d="m 152.32801,1002.956 c 1.41722,0 2.5622,1.1453 2.5622,2.5624 0,1.4171 -1.14498,2.5622 -2.5622,2.5622 -1.41722,0 -2.59505,-1.1451 -2.59505,-2.5622 0,-1.4171 1.17783,-2.5624 2.59505,-2.5624 z m -29.62274,-19.43089 0,8.45895 8.45895,0 0,8.45894 -8.45895,0 0,8.4589 -8.45894,0 0,8.459 -8.45895,0 0,25.3768 8.45895,0 0,-16.9179 8.45894,0 0,25.3769 25.37684,0 0,-8.459 -16.91789,0 0,-8.4589 16.91789,0 8.45894,0 16.9179,0 0,8.4589 -16.9179,0 0,8.459 25.37684,0 0,-25.3769 8.45895,0 0,16.9179 8.45894,0 0,-25.3768 -8.45894,0 0,-8.459 -8.45895,0 0,-8.4589 -8.45894,0 0,-8.45894 8.45894,0 0,-8.45895 -16.91789,0 0,16.91789 c -8.19221,0 -17.18463,0 -25.37684,0 l 0,-16.91789 z m 8.45895,25.37679 8.45894,0 0,8.459 -8.45894,0 z m 33.83578,0 8.45895,0 0,8.459 -8.45895,0 z" />
    <path
       d="m 165,1051.1966 0,-8.4589 m 16.91789,0 -8.45894,0 0,8.4589 m 8.45894,-25.3768 -8.45894,0 0,8.4589 8.45894,0 m -33.83578,0 0,-8.4589 8.45894,0 0,8.4589 m -16.91789,0 c 0,-8.4589 0,-8.4589 0,-8.4589 l 8.45895,0 0,-8.459 8.45894,0 0,8.459 8.45895,0 0,8.4589 m -42.29473,0 c 8.45895,0 8.45895,0 8.45895,0 l 0,-8.4589 -8.45895,0 m 8.45895,25.3768 c 0,-8.4589 0,-8.4589 0,-8.4589 l -8.45895,0 m 16.91789,8.4589 c 0,-8.4589 0,-8.4589 0,-8.4589 m 42.29473,-16.9179 c 0,-8.459 0,-8.459 0,-8.459 l -8.45894,0 0,8.459 -8.45895,0 0,-8.459 -8.45895,0 0,-8.4589 8.45895,0 0,-8.4589 m 33.83578,33.8357 c -8.45894,0 -8.45894,0 -8.45894,0 M 165,1000.443 c 8.45895,0 8.45895,0 8.45895,0 l 0,8.4589 8.45894,0 0,8.4589 8.45895,0 0,8.459 8.45894,0 m -25.37683,-42.29474 c 0,8.45895 0,8.45895 0,8.45895 l -8.45895,0 m -16.91789,8.45899 c 0,8.4589 0,8.4589 0,8.4589 l 8.45894,0 0,-8.4589 m -33.83578,25.3768 c 0,-8.459 0,-8.459 0,-8.459 l 8.45895,0 0,8.459 8.45894,0 0,-8.459 8.45895,0 0,-8.4589 -8.45895,0 0,-8.4589 m -33.83578,33.8357 c 8.45895,0 8.45895,0 8.45895,0 m 25.37683,-33.8357 c -8.45894,0 -8.45894,0 -8.45894,0 l 0,8.4589 -8.45895,0 0,8.4589 -8.45894,0 0,8.459 -8.45895,0 m 25.37684,-42.29474 c 0,8.45895 0,8.45895 0,8.45895 l 8.45894,0"
       style="fill:none;stroke:#000000;stroke-width:0.84589458px;stroke-linecap:butt;stroke-linejoin:miter;stroke-opacity:1"
       id="path3896"
       inkscape:connector-curvature="0" />
  </g>
</svg>
