<?xml version="1.0" encoding="UTF-8" standalone="no"?>
<!-- Created with Inkscape (http://www.inkscape.org/) -->

<svg
   xmlns:dc="http://purl.org/dc/elements/1.1/"
   xmlns:cc="http://creativecommons.org/ns#"
   xmlns:rdf="http://www.w3.org/1999/02/22-rdf-syntax-ns#"
   xmlns:svg="http://www.w3.org/2000/svg"
   xmlns="http://www.w3.org/2000/svg"
   xmlns:sodipodi="http://sodipodi.sourceforge.net/DTD/sodipodi-0.dtd"
   xmlns:inkscape="http://www.inkscape.org/namespaces/inkscape"
   width="145.09875"
   height="70.130005"
   id="svg1301"
   version="1.1"
   inkscape:version="0.48+devel r10556"
   sodipodi:docname="New document 13">
  <defs
     id="defs1303" />
  <sodipodi:namedview
     id="base"
     pagecolor="#ffffff"
     bordercolor="#666666"
     borderopacity="1.0"
     inkscape:pageopacity="0.0"
     inkscape:pageshadow="2"
     inkscape:zoom="3.8943662"
     inkscape:cx="28.609532"
     inkscape:cy="1.3908002"
     inkscape:document-units="px"
     inkscape:current-layer="g1700"
     showgrid="false"
     fit-margin-top="0"
     fit-margin-left="0"
     fit-margin-right="0"
     fit-margin-bottom="0"
     units="cm"
     inkscape:window-width="1280"
     inkscape:window-height="753"
     inkscape:window-x="0"
     inkscape:window-y="0"
     inkscape:window-maximized="1" />
  <metadata
     id="metadata1306">
    <rdf:RDF>
      <cc:Work
         rdf:about="">
        <dc:format>image/svg+xml</dc:format>
        <dc:type
           rdf:resource="http://purl.org/dc/dcmitype/StillImage" />
        <dc:title></dc:title>
      </cc:Work>
    </rdf:RDF>
  </metadata>
  <g
     inkscape:label="Layer 1"
     inkscape:groupmode="layer"
     id="layer1"
     transform="translate(3.9712538,-520.15378)">
    <g
       id="g1646"
       style="stroke:#ff0000">
      <g
         id="g255"
         transform="translate(-933.92857,47.857145)"
         style="stroke:#ff0000">
        <path
           style="fill:none;stroke:#ff0000;stroke-width:1px;stroke-linecap:butt;stroke-linejoin:miter;stroke-opacity:1"
           d="m 1005,537.36218 5,0 0,0 0,0 0,-5 5,0 0,-5 5,0 0,5 5,0 0,5 5,0 0,5"
           id="path201"
           inkscape:connector-curvature="0" />
        <path
           style="fill:none;stroke:#ff0000;stroke-width:1px;stroke-linecap:butt;stroke-linejoin:miter;stroke-opacity:1"
           d="m 1035,537.36218 -5,0 0,-5 -5,0 0,-5 -5,0 0,-5 -5,0 0,5 -5,0 0,5 -5,0"
           id="path203"
           inkscape:connector-curvature="0" />
        <path
           style="fill:none;stroke:#ff0000;stroke-width:1px;stroke-linecap:butt;stroke-linejoin:miter;stroke-opacity:1"
           d="m 1005,527.36218 5,0 0,-5 5,0 0,-5 5,0 0,5 5,0 0,5 5,0 0,5 5,0 0,-5 5,0 0,5"
           id="path205"
           inkscape:connector-curvature="0" />
        <path
           style="fill:none;stroke:#ff0000;stroke-width:1px;stroke-linecap:butt;stroke-linejoin:miter;stroke-opacity:1"
           d="m 1005,522.36218 5,0 0,-5 5,0 0,-5 5,0 0,5 5,0 0,5 5,0 0,5 5,0 0,-5 5,0 0,5 5,0 0,5 5,0 0,5 -5,0"
           id="path207"
           inkscape:connector-curvature="0" />
        <path
           style="fill:none;stroke:#ff0000;stroke-width:1px;stroke-linecap:butt;stroke-linejoin:miter;stroke-opacity:1"
           d="m 1050,542.36218 0,-5 5,0 0,-5 -5,0 0,-5 -5,0 0,-5 -5,0 0,-5 -5,0 0,5 -5,0 0,-5 -5,0 0,-5"
           id="path209"
           inkscape:connector-curvature="0" />
        <path
           style="fill:none;stroke:#ff0000;stroke-width:1px;stroke-linecap:butt;stroke-linejoin:miter;stroke-opacity:1"
           d="m 1030,512.36218 0,5 5,0 0,-5 z"
           id="path211"
           inkscape:connector-curvature="0" />
        <path
           style="fill:none;stroke:#ff0000;stroke-width:1px;stroke-linecap:butt;stroke-linejoin:miter;stroke-opacity:1"
           d="m 1075,537.36218 -5,0 0,-5 -5,0 0,-5 -5,0 0,5 -5,0 0,-5 -5,0 0,-5 -5,0 0,-5 -5,0 0,-5 -5,0 0,-5 5,0 0,5 5,0 0,5 5,0 0,5 5,0 0,5 5,0 0,-5 -5,0 0,-5 -5,0 0,-5"
           id="path213"
           inkscape:connector-curvature="0" />
        <path
           style="fill:none;stroke:#ff0000;stroke-width:1px;stroke-linecap:butt;stroke-linejoin:miter;stroke-opacity:1"
           d="m 1075,532.36218 -5,0 0,-5 -5,0 0,-5 -5,0 0,-5 -5,0 0,-5 5,0 0,5 5,0 0,5 5,0 0,5 5,0"
           id="path215"
           inkscape:connector-curvature="0" />
        <path
           style="fill:none;stroke:#ff0000;stroke-width:1px;stroke-linecap:butt;stroke-linejoin:miter;stroke-opacity:1"
           d="m 1075,522.36218 -5,0 0,-5 -5,0 0,-5 -5,0 0,-5 5,0 0,5 5,0 0,5 5,0"
           id="path217"
           inkscape:connector-curvature="0" />
        <path
           style="fill:none;stroke:#ff0000;stroke-width:1px;stroke-linecap:butt;stroke-linejoin:miter;stroke-opacity:1"
           d="m 1075,512.36218 -5,0 0,-5 5,0"
           id="path219"
           inkscape:connector-curvature="0" />
        <path
           style="fill:none;stroke:#ff0000;stroke-width:1px;stroke-linecap:butt;stroke-linejoin:miter;stroke-opacity:1"
           d="m 1070,502.36218 0,5 -5,0 0,-5 -5,0"
           id="path221"
           inkscape:connector-curvature="0" />
        <path
           style="fill:none;stroke:#ff0000;stroke-width:1px;stroke-linecap:butt;stroke-linejoin:miter;stroke-opacity:1"
           d="m 1060,497.36218 5,0 0,5 5,0"
           id="path223"
           inkscape:connector-curvature="0" />
        <path
           style="fill:none;stroke:#ff0000;stroke-width:1px;stroke-linecap:butt;stroke-linejoin:miter;stroke-opacity:1"
           d="m 1070,497.36218 -5,0 0,-5 5,0"
           id="path225"
           inkscape:connector-curvature="0" />
        <path
           style="fill:none;stroke:#ff0000;stroke-width:1px;stroke-linecap:butt;stroke-linejoin:miter;stroke-opacity:1"
           d="m 1065,487.36218 0,5 -5,0 0,-5 -5,0 0,-5 -5,0 0,-5"
           id="path227"
           inkscape:connector-curvature="0" />
        <path
           style="fill:none;stroke:#ff0000;stroke-width:1px;stroke-linecap:butt;stroke-linejoin:miter;stroke-opacity:1"
           d="m 1055,477.36218 0,5 5,0 0,5 5,0"
           id="path229"
           inkscape:connector-curvature="0"
           sodipodi:nodetypes="ccccc" />
        <path
           style="fill:none;stroke:#ff0000;stroke-width:1px;stroke-linecap:butt;stroke-linejoin:miter;stroke-opacity:1"
           d="m 1045,472.36218 0,5 5,0"
           id="path231"
           inkscape:connector-curvature="0" />
        <path
           style="fill:none;stroke:#ff0000;stroke-width:1px;stroke-linecap:butt;stroke-linejoin:miter;stroke-opacity:1"
           d="m 1050,487.36218 0,-5 -5,0 0,-5 -5,0 0,-5"
           id="path233"
           inkscape:connector-curvature="0" />
        <path
           style="fill:none;stroke:#ff0000;stroke-width:1px;stroke-linecap:butt;stroke-linejoin:miter;stroke-opacity:1"
           d="m 1035,472.36218 0,5 5,0 0,5 5,0 0,5 -5,0 0,-5 -5,0 0,-5 -5,0 0,5 5,0 0,5 5,0 0,5 -5,0 0,-5 -5,0 0,-5 -5,0 0,-5"
           id="path235"
           inkscape:connector-curvature="0" />
        <path
           style="fill:none;stroke:#ff0000;stroke-width:1px;stroke-linecap:butt;stroke-linejoin:miter;stroke-opacity:1"
           d="m 1020,482.36218 5,0 0,5"
           id="path237"
           inkscape:connector-curvature="0" />
        <path
           style="fill:none;stroke:#ff0000;stroke-width:1px;stroke-linecap:butt;stroke-linejoin:miter;stroke-opacity:1"
           d="m 1020,482.36218 0,5 -5,0 0,5 -5,0"
           id="path239"
           inkscape:connector-curvature="0" />
        <path
           style="fill:none;stroke:#ff0000;stroke-width:1px;stroke-linecap:butt;stroke-linejoin:miter;stroke-opacity:1"
           d="m 1010,497.36218 5,0 0,5 10,0"
           id="path241"
           inkscape:connector-curvature="0" />
        <path
           style="fill:none;stroke:#ff0000;stroke-width:1px;stroke-linecap:butt;stroke-linejoin:miter;stroke-opacity:1"
           d="m 1020,497.36218 0,10 -5,0 0,-5 -5,0 0,5 5,0 0,5 -5,0 0,-5 -5,0"
           id="path243"
           inkscape:connector-curvature="0" />
        <path
           style="fill:none;stroke:#ff0000;stroke-width:1px;stroke-linecap:butt;stroke-linejoin:miter;stroke-opacity:1"
           d="m 1005,512.36218 5,0 0,5 -5,0"
           id="path245"
           inkscape:connector-curvature="0" />
        <path
           style="fill:none;stroke:#ff0000;stroke-width:1px;stroke-linecap:butt;stroke-linejoin:miter;stroke-opacity:1"
           d="m 1035,497.36218 5,0 0,5 -5,0"
           id="path247"
           inkscape:connector-curvature="0" />
        <path
           style="fill:none;stroke:#ff0000;stroke-width:1px;stroke-linecap:butt;stroke-linejoin:miter;stroke-opacity:1"
           d="m 1045,497.36218 0,5 -5,0 0,5 5,0 0,-5 5,0"
           id="path249"
           inkscape:connector-curvature="0" />
      </g>
      <g
         transform="matrix(-1,0,0,1,1071.0714,47.857145)"
         id="g1101"
         style="stroke:#ff0000">
        <path
           inkscape:connector-curvature="0"
           id="path1103"
           d="m 1005,537.36218 5,0 0,0 0,0 0,-5 5,0 0,-5 5,0 0,5 5,0 0,5 5,0 0,5"
           style="fill:none;stroke:#ff0000;stroke-width:1px;stroke-linecap:butt;stroke-linejoin:miter;stroke-opacity:1" />
        <path
           inkscape:connector-curvature="0"
           id="path1105"
           d="m 1035,537.36218 -5,0 0,-5 -5,0 0,-5 -5,0 0,-5 -5,0 0,5 -5,0 0,5 -5,0"
           style="fill:none;stroke:#ff0000;stroke-width:1px;stroke-linecap:butt;stroke-linejoin:miter;stroke-opacity:1" />
        <path
           inkscape:connector-curvature="0"
           id="path1107"
           d="m 1005,527.36218 5,0 0,-5 5,0 0,-5 5,0 0,5 5,0 0,5 5,0 0,5 5,0 0,-5 5,0 0,5"
           style="fill:none;stroke:#ff0000;stroke-width:1px;stroke-linecap:butt;stroke-linejoin:miter;stroke-opacity:1" />
        <path
           inkscape:connector-curvature="0"
           id="path1109"
           d="m 1005,522.36218 5,0 0,-5 5,0 0,-5 5,0 0,5 5,0 0,5 5,0 0,5 5,0 0,-5 5,0 0,5 5,0 0,5 5,0 0,5 -5,0"
           style="fill:none;stroke:#ff0000;stroke-width:1px;stroke-linecap:butt;stroke-linejoin:miter;stroke-opacity:1" />
        <path
           inkscape:connector-curvature="0"
           id="path1111"
           d="m 1050,542.36218 0,-5 5,0 0,-5 -5,0 0,-5 -5,0 0,-5 -5,0 0,-5 -5,0 0,5 -5,0 0,-5 -5,0 0,-5"
           style="fill:none;stroke:#ff0000;stroke-width:1px;stroke-linecap:butt;stroke-linejoin:miter;stroke-opacity:1" />
        <path
           inkscape:connector-curvature="0"
           id="path1113"
           d="m 1030,512.36218 0,5 5,0 0,-5 z"
           style="fill:none;stroke:#ff0000;stroke-width:1px;stroke-linecap:butt;stroke-linejoin:miter;stroke-opacity:1" />
        <path
           inkscape:connector-curvature="0"
           id="path1115"
           d="m 1075,537.36218 -5,0 0,-5 -5,0 0,-5 -5,0 0,5 -5,0 0,-5 -5,0 0,-5 -5,0 0,-5 -5,0 0,-5 -5,0 0,-5 5,0 0,5 5,0 0,5 5,0 0,5 5,0 0,5 5,0 0,-5 -5,0 0,-5 -5,0 0,-5"
           style="fill:none;stroke:#ff0000;stroke-width:1px;stroke-linecap:butt;stroke-linejoin:miter;stroke-opacity:1" />
        <path
           inkscape:connector-curvature="0"
           id="path1117"
           d="m 1075,532.36218 -5,0 0,-5 -5,0 0,-5 -5,0 0,-5 -5,0 0,-5 5,0 0,5 5,0 0,5 5,0 0,5 5,0"
           style="fill:none;stroke:#ff0000;stroke-width:1px;stroke-linecap:butt;stroke-linejoin:miter;stroke-opacity:1" />
        <path
           inkscape:connector-curvature="0"
           id="path1119"
           d="m 1075,522.36218 -5,0 0,-5 -5,0 0,-5 -5,0 0,-5 5,0 0,5 5,0 0,5 5,0"
           style="fill:none;stroke:#ff0000;stroke-width:1px;stroke-linecap:butt;stroke-linejoin:miter;stroke-opacity:1" />
        <path
           inkscape:connector-curvature="0"
           id="path1121"
           d="m 1075,512.36218 -5,0 0,-5 5,0"
           style="fill:none;stroke:#ff0000;stroke-width:1px;stroke-linecap:butt;stroke-linejoin:miter;stroke-opacity:1" />
        <path
           inkscape:connector-curvature="0"
           id="path1123"
           d="m 1070,502.36218 0,5 -5,0 0,-5 -5,0"
           style="fill:none;stroke:#ff0000;stroke-width:1px;stroke-linecap:butt;stroke-linejoin:miter;stroke-opacity:1" />
        <path
           inkscape:connector-curvature="0"
           id="path1125"
           d="m 1060,497.36218 5,0 0,5 5,0"
           style="fill:none;stroke:#ff0000;stroke-width:1px;stroke-linecap:butt;stroke-linejoin:miter;stroke-opacity:1" />
        <path
           inkscape:connector-curvature="0"
           id="path1127"
           d="m 1070,497.36218 -5,0 0,-5 5,0"
           style="fill:none;stroke:#ff0000;stroke-width:1px;stroke-linecap:butt;stroke-linejoin:miter;stroke-opacity:1" />
        <path
           inkscape:connector-curvature="0"
           id="path1129"
           d="m 1065,487.36218 0,5 -5,0 0,-5 -5,0 0,-5 -5,0 0,-5"
           style="fill:none;stroke:#ff0000;stroke-width:1px;stroke-linecap:butt;stroke-linejoin:miter;stroke-opacity:1" />
        <path
           sodipodi:nodetypes="ccccc"
           inkscape:connector-curvature="0"
           id="path1131"
           d="m 1055,477.36218 0,5 5,0 0,5 5,0"
           style="fill:none;stroke:#ff0000;stroke-width:1px;stroke-linecap:butt;stroke-linejoin:miter;stroke-opacity:1" />
        <path
           inkscape:connector-curvature="0"
           id="path1133"
           d="m 1045,472.36218 0,5 5,0"
           style="fill:none;stroke:#ff0000;stroke-width:1px;stroke-linecap:butt;stroke-linejoin:miter;stroke-opacity:1" />
        <path
           inkscape:connector-curvature="0"
           id="path1135"
           d="m 1050,487.36218 0,-5 -5,0 0,-5 -5,0 0,-5"
           style="fill:none;stroke:#ff0000;stroke-width:1px;stroke-linecap:butt;stroke-linejoin:miter;stroke-opacity:1" />
        <path
           inkscape:connector-curvature="0"
           id="path1137"
           d="m 1035,472.36218 0,5 5,0 0,5 5,0 0,5 -5,0 0,-5 -5,0 0,-5 -5,0 0,5 5,0 0,5 5,0 0,5 -5,0 0,-5 -5,0 0,-5 -5,0 0,-5"
           style="fill:none;stroke:#ff0000;stroke-width:1px;stroke-linecap:butt;stroke-linejoin:miter;stroke-opacity:1" />
        <path
           inkscape:connector-curvature="0"
           id="path1139"
           d="m 1020,482.36218 5,0 0,5"
           style="fill:none;stroke:#ff0000;stroke-width:1px;stroke-linecap:butt;stroke-linejoin:miter;stroke-opacity:1" />
        <path
           inkscape:connector-curvature="0"
           id="path1141"
           d="m 1020,482.36218 0,5 -5,0 0,5 -5,0"
           style="fill:none;stroke:#ff0000;stroke-width:1px;stroke-linecap:butt;stroke-linejoin:miter;stroke-opacity:1" />
        <path
           inkscape:connector-curvature="0"
           id="path1143"
           d="m 1010,497.36218 5,0 0,5 10,0"
           style="fill:none;stroke:#ff0000;stroke-width:1px;stroke-linecap:butt;stroke-linejoin:miter;stroke-opacity:1" />
        <path
           inkscape:connector-curvature="0"
           id="path1145"
           d="m 1020,497.36218 0,10 -5,0 0,-5 -5,0 0,5 5,0 0,5 -5,0 0,-5 -5,0"
           style="fill:none;stroke:#ff0000;stroke-width:1px;stroke-linecap:butt;stroke-linejoin:miter;stroke-opacity:1" />
        <path
           inkscape:connector-curvature="0"
           id="path1147"
           d="m 1005,512.36218 5,0 0,5 -5,0"
           style="fill:none;stroke:#ff0000;stroke-width:1px;stroke-linecap:butt;stroke-linejoin:miter;stroke-opacity:1" />
        <path
           inkscape:connector-curvature="0"
           id="path1149"
           d="m 1035,497.36218 5,0 0,5 -5,0"
           style="fill:none;stroke:#ff0000;stroke-width:1px;stroke-linecap:butt;stroke-linejoin:miter;stroke-opacity:1" />
        <path
           inkscape:connector-curvature="0"
           id="path1151"
           d="m 1045,497.36218 0,5 -5,0 0,5 5,0 0,-5 5,0"
           style="fill:none;stroke:#ff0000;stroke-width:1px;stroke-linecap:butt;stroke-linejoin:miter;stroke-opacity:1" />
      </g>
    </g>
    <g
       id="g1700"
       style="fill:none;stroke:#000000">
      <g
         id="g1726">
        <path
           d="m 61.071433,550.21931 5,-4e-5 0,40 -5,0 0,-5 -5,0 0,-5 -5,0 0,5 -5,0 0,5 -10,0 0,-10 -10,0 0,10 -10,0 0,-5 -5,0 0,-5 -5.0000004,0 0,5 -5.0000002,0 0,5 -5,0 0,-40 5,0 0,-15 5.0000002,0 0,-5 5.0000004,0 0,-5 5,0 0,0 5,0 0,-5 20,0 0,5 10,0 0,5 5,0 0,5 5,0 z m -30,-10.00004 -5,0 0,-5 -10,0 0,5 -5,0 0,15 5,0 0,5 10,0 0,-4.99998 -5,-2e-5 0,-10 10,0 z m 15,15.00002 0,-10.00002 10,4e-5 0,-5 -5,-4e-5 0,-5 -10,0 0,5 -5,0 0,15 5,0 0,5 10,0 0,-4.99996 z m -17.45621,-27.36655 c 0,1.35653 1.099645,2.45621 2.45621,2.45621 1.356565,0 2.45621,-1.09968 2.45621,-2.45621 0,-1.35653 -1.099645,-2.45621 -2.45621,-2.45621 -1.356565,0 -2.45621,1.09968 -2.45621,2.45621 z"
           style="fill:none;stroke:#000000;stroke-width:0.10000000000000001;stroke-linecap:butt;stroke-linejoin:round;stroke-miterlimit:4;stroke-opacity:1;stroke-dashoffset:0"
           id="path1093" />
        <path
           d="m 103.61522,527.85274 c 0,1.35653 1.09965,2.45621 2.45621,2.45621 1.35657,0 2.45621,-1.09968 2.45621,-2.45621 0,-1.35653 -1.09964,-2.45621 -2.45621,-2.45621 -1.35656,0 -2.45621,1.09968 -2.45621,2.45621 z m -27.543787,22.36657 -5,-4e-5 0,40 5,0 0,-5 5,0 0,-5 5,0 0,5 5,0 0,5 9.999997,0 0,-10 10,0 0,10 10,0 0,-5 5,0 0,-5 5,0 0,5 5,0 0,5 5,0 0,-40 -5,0 0,-15 -5,0 0,-5 -5,0 0,-5 -5,0 0,0 -5,0 0,-5 -20.000001,0 0,5 -9.999996,0 0,5 -5,0 0,5 -5,0 z m 29.999997,-10.00004 5,0 0,-5 10,0 0,5 5,0 0,15 -5,0 0,5 -10,0 0,-4.99998 5,-2e-5 0,-10 -10,0 z m -14.999997,15.00002 0,-10.00002 -10,4e-5 0,-5 5,-4e-5 0,-5 9.999996,0 0,5 5.000001,0 0,15 -5.000001,0 0,5 -9.999996,0 0,-4.99996 z"
           style="fill:none;stroke:#000000;stroke-width:0.10000001;stroke-linecap:butt;stroke-linejoin:round;stroke-miterlimit:4;stroke-opacity:1;stroke-dashoffset:0"
           id="path1713" />
      </g>
    </g>
    <g
       transform="translate(-933.92857,47.857145)"
       id="g251"
       style="fill:#000000">
      <rect
         y="497.36218"
         x="1015"
         height="10"
         width="10"
         id="rect178"
         style="fill:#000000;fill-opacity:1;stroke:none" />
      <rect
         y="497.36218"
         x="1040"
         height="10"
         width="10"
         id="rect180"
         style="fill:#000000;fill-opacity:1;stroke:none" />
    </g>
    <g
       id="g1095"
       transform="matrix(-1,0,0,1,1071.0714,47.857145)"
       style="fill:#000000;stroke:none">
      <rect
         style="fill:#000000;fill-opacity:1;stroke:none"
         id="rect1097"
         width="10"
         height="10"
         x="1015"
         y="497.36218" />
      <rect
         style="fill:#000000;fill-opacity:1;stroke:none"
         id="rect1099"
         width="10"
         height="10"
         x="1040"
         y="497.36218" />
    </g>
  </g>
</svg>
